<svg width="512" height="512" viewBox="0 0 512 512" fill="none" xmlns="http://www.w3.org/2000/svg">
<path d="M497 32H451V15C451 6.716 444.284 0 436 0C427.716 0 421 6.716 421 15V32H361V15C361 6.716 354.284 0 346 0C337.716 0 331 6.716 331 15V32H271V15C271 6.716 264.284 0 256 0C247.716 0 241 6.716 241 15V32H181V15C181 6.716 174.284 0 166 0C157.716 0 151 6.716 151 15V32H91V15C91 6.716 84.284 0 76 0C67.716 0 61 6.716 61 15V32H15C6.716 32 0 38.716 0 47V497C0 505.284 6.716 512 15 512H497C505.284 512 512 505.284 512 497V47C512 38.716 505.284 32 497 32ZM61 62V77C61 85.284 67.716 92 76 92C84.284 92 91 85.284 91 77V62H151V77C151 85.284 157.716 92 166 92C174.284 92 181 85.284 181 77V62H241V77C241 85.284 247.716 92 256 92C264.284 92 271 85.284 271 77V62H331V77C331 85.284 337.716 92 346 92C354.284 92 361 85.284 361 77V62H421V77C421 85.284 427.716 92 436 92C444.284 92 451 85.284 451 77V62H482V122H30V62H61ZM30 482V152H482V482H30Z" fill="#4B5563"/>
<path d="M166 212H106C97.716 212 91 218.716 91 227V287C91 295.284 97.716 302 106 302H166C174.284 302 181 295.284 181 287V227C181 218.716 174.284 212 166 212ZM151 272H121V242H151V272Z" fill="#4B5563"/>
<path d="M406 212H346C337.716 212 331 218.716 331 227V287C331 295.284 337.716 302 346 302H406C414.284 302 421 295.284 421 287V227C421 218.716 414.284 212 406 212ZM391 272H361V242H391V272Z" fill="#4B5563"/>
<path d="M286 331H226C217.716 331 211 337.716 211 346V406C211 414.284 217.716 421 226 421H286C294.284 421 301 414.284 301 406V346C301 337.716 294.284 331 286 331ZM271 391H241V361H271V391Z" fill="#4B5563"/>
<path d="M286 212H226C217.716 212 211 218.716 211 227V287C211 295.284 217.716 302 226 302H286C294.284 302 301 295.284 301 287V227C301 218.716 294.284 212 286 212ZM271 272H241V242H271V272Z" fill="#4B5563"/>
<path d="M406 331H346C337.716 331 331 337.716 331 346V406C331 414.284 337.716 421 346 421H406C414.284 421 421 414.284 421 406V346C421 337.716 414.284 331 406 331ZM391 391H361V361H391V391Z" fill="#4B5563"/>
<path d="M175.462 345.161C169.034 339.935 159.587 340.911 154.361 347.337L123.863 384.85L115.511 378.001C109.105 372.746 99.654 373.683 94.401 380.088C89.148 386.494 90.083 395.945 96.489 401.198L116.489 417.598C122.927 422.878 132.411 421.893 137.639 415.462L177.639 366.262C182.865 359.834 181.89 350.387 175.462 345.161V345.161Z" fill="#4B5563"/>
</svg>
