<svg width="307" height="52" viewBox="0 0 307 52" fill="none" xmlns="http://www.w3.org/2000/svg">
<path d="M19 50.6364C29.3409 50.6364 35.6818 44.7045 35.8182 35.4545H24.1818C23.9091 39.1136 21.9318 41.0909 19.1818 41.0909C15.8864 41.0909 13.7273 38.2727 13.7273 32.5455C13.7273 26.8182 15.8864 24 19.1818 24C21.9545 24 23.8409 25.9773 24.1818 29.6364H35.8182C35.75 20.5455 29.2727 14.6364 19 14.6364C7.63636 14.6364 0.909091 21.9091 0.909091 32.6364C0.909091 43.3636 7.63636 50.6364 19 50.6364ZM57.8125 50.6364C69.1761 50.6364 75.9034 43.3636 75.9034 32.6364C75.9034 21.9091 69.1761 14.6364 57.8125 14.6364C46.4489 14.6364 39.7216 21.9091 39.7216 32.6364C39.7216 43.3636 46.4489 50.6364 57.8125 50.6364ZM57.9034 41.3636C54.5398 41.3636 52.5398 38.0227 52.5398 32.5455C52.5398 27.0682 54.5398 23.7273 57.9034 23.7273C61.0852 23.7273 63.0852 27.0682 63.0852 32.5455C63.0852 38.0227 61.0852 41.3636 57.9034 41.3636ZM115.114 15.0909H101.932L96.2955 38.1818H95.9318L90.2955 15.0909H77.1136L88.8409 50H103.386L115.114 15.0909ZM118.682 50H131.227V15.0909H118.682V50ZM124.955 11.4545C128.364 11.4545 131.136 8.88636 131.136 5.72727C131.136 2.56818 128.364 0 124.955 0C121.545 0 118.773 2.56818 118.773 5.72727C118.773 8.88636 121.545 11.4545 124.955 11.4545ZM150.256 50.4545C155.165 50.4545 158.528 47.8182 159.983 44.2727H160.256V50H172.71V3.45454H160.165V21.1818H159.983C158.619 17.6364 155.347 14.6364 150.165 14.6364C143.256 14.6364 136.528 19.9091 136.528 32.5455C136.528 44.6364 142.801 50.4545 150.256 50.4545ZM154.892 40.8182C151.438 40.8182 149.438 37.7273 149.438 32.5455C149.438 27.3636 151.438 24.2727 154.892 24.2727C158.347 24.2727 160.438 27.3636 160.438 32.5455C160.438 37.6364 158.347 40.8182 154.892 40.8182ZM196.96 50.6364C208.347 50.6364 216.369 44.8409 216.324 36.6364C216.369 30.9318 212.551 26.9091 205.051 26.0909V25.7273C210.597 25.1364 214.642 21.5682 214.597 16.3636C214.642 8.52272 207.369 2.81818 197.051 2.81818C186.506 2.81818 179.006 8.84091 178.96 17.3636H191.051C191.097 14.5455 193.574 12.5455 197.051 12.5455C200.233 12.5455 202.46 14.4773 202.415 17.1818C202.46 20 199.824 22 196.051 22H191.324V30.7273H196.051C200.142 30.7273 203.006 32.7273 202.96 35.5455C203.006 38.4318 200.551 40.4545 197.051 40.4545C193.415 40.4545 190.824 38.5227 190.778 35.8182H178.051C178.097 44.5 185.938 50.6364 196.96 50.6364ZM241.42 50.6364C252.42 50.6364 260.102 44.0227 260.057 34C260.102 25.4773 254.398 19.2727 245.966 19.2727C240.648 19.2727 235.83 21.8182 234.057 26.0909H233.784C233.83 18.5682 236.193 13.5455 241.511 13.5455C244.17 13.5455 246.489 14.7273 247.057 17.3636H259.511C258.716 9.40909 251.784 2.81818 241.511 2.81818C229.307 2.81818 221.284 12.1818 221.239 27.2727C221.193 44.1818 230.557 50.6364 241.42 50.6364ZM241.33 41.0909C237.648 41.0909 234.92 38.2955 234.875 34.4545C234.92 30.6136 237.648 27.8182 241.33 27.8182C245.102 27.8182 247.83 30.6136 247.784 34.4545C247.83 38.2955 245.102 41.0909 241.33 41.0909ZM286.051 51.2727C298.71 51.2955 306.574 42.2273 306.597 26.8182C306.619 11.5 298.71 2.81818 286.051 2.81818C273.369 2.81818 265.551 11.4545 265.506 26.8182C265.46 42.1591 273.369 51.25 286.051 51.2727ZM286.051 41C281.688 41 278.551 36.6136 278.597 26.8182C278.642 17.25 281.688 13 286.051 13C290.415 13 293.483 17.25 293.506 26.8182C293.528 36.6136 290.415 41 286.051 41Z" fill="white"/>
</svg>
