<svg width="515" height="570" viewBox="0 0 515 570" fill="none" xmlns="http://www.w3.org/2000/svg">
<path fill-rule="evenodd" clip-rule="evenodd" d="M242.012 0C395.583 0 515 152.316 515 332.972C515 488.844 374.515 570 242.012 570C119.032 570 0 477.642 0 332.972C0 161.888 96.5777 0 242.012 0Z" fill="#CFD0FF"/>
<g style="mix-blend-mode:multiply">
<path d="M148.06 547.413C161.702 547.413 172.76 545.627 172.76 543.423C172.76 541.22 161.702 539.433 148.06 539.433C134.419 539.433 123.36 541.22 123.36 543.423C123.36 545.627 134.419 547.413 148.06 547.413Z" fill="#4B5563"/>
</g>
<g style="mix-blend-mode:multiply">
<path d="M210.58 547.413C224.221 547.413 235.28 545.627 235.28 543.423C235.28 541.22 224.221 539.433 210.58 539.433C196.938 539.433 185.88 541.22 185.88 543.423C185.88 545.627 196.938 547.413 210.58 547.413Z" fill="#4B5563"/>
</g>
<path d="M111.05 344.773C111.46 347.623 111.75 349.333 111.75 349.333C111.75 349.333 114.95 365.573 125.02 373.623C126.49 374.803 121.87 371.153 121.87 371.153C121.87 371.153 128.42 376.293 129.67 376.483C130.92 376.673 124.54 370.643 124.54 370.643C124.54 370.643 131.54 377.023 132.8 376.513C134.06 376.003 127.67 368.093 127.67 368.093C127.67 368.093 133.59 375.423 134.91 375.013C136.23 374.603 126.64 353.633 130.06 355.593C131.21 356.243 136.94 361.463 138.71 360.483C140.48 359.503 129.25 346.893 129.25 346.893C129.25 346.893 128.59 341.293 128.63 340.773L111.05 344.773Z" fill="#FB7B5C"/>
<path d="M197.92 522.713L203.61 547.463H241.48V544.473L219.94 531.963L217.3 523.163L197.92 522.713Z" fill="#FB7B5C"/>
<path d="M209.18 523.163L203.61 547.463L197.92 522.713L209.18 523.163Z" fill="#D34A28"/>
<path d="M220.22 532.003L213.81 538.863C213.427 539.289 212.961 539.632 212.44 539.871C211.92 540.109 211.356 540.239 210.783 540.251C210.21 540.263 209.641 540.158 209.111 539.942C208.581 539.725 208.101 539.403 207.7 538.993L200.42 531.733L203.88 547.503H241.75V544.503L220.22 532.003Z" fill="#FCF4E3" stroke="#FCF4E3" stroke-width="1.02" stroke-miterlimit="10"/>
<path d="M145.97 522.443L140.28 547.193H102.41V544.203L123.95 531.693L125.6 522.893L145.97 522.443Z" fill="#FB7B5C"/>
<path d="M134 522.613L145.97 522.443L140.28 547.193L134 522.613Z" fill="#D34A28"/>
<path d="M123.49 531.693L129.9 538.543C130.282 538.97 130.748 539.314 131.268 539.553C131.788 539.793 132.352 539.923 132.925 539.936C133.497 539.949 134.066 539.845 134.597 539.629C135.128 539.414 135.609 539.092 136.01 538.683L143.29 531.413L139.83 547.193H102V544.193L123.49 531.693Z" fill="#FCF4E3" stroke="#FCF4E3" stroke-width="1.02" stroke-miterlimit="10"/>
<path d="M198.6 322.153L219.49 528.003L198.71 528.333L169.26 373.653C167.17 368.783 164.66 371.603 164.18 374.233L144.98 528.123L124.49 526.623C124.49 526.623 122.49 414.933 131.62 320.713L198.6 322.153Z" fill="#002439" stroke="#002439" stroke-width="1.56" stroke-miterlimit="10"/>
<path d="M212.07 257.163C205.8 292.043 203.07 323.363 203.07 323.363L128.39 322.153L121.55 216.093C130.73 208.003 143.49 203.533 152.78 203.193L176.33 202.523C176.33 202.523 188.43 204.213 198.79 206.003C207.54 207.473 211.29 211.003 215.79 218.683" fill="#3F03BD"/>
<path opacity="0.38" d="M203.02 323.363L128.34 322.163L121.55 216.093" fill="#1B0055"/>
<path d="M137.39 263.613C136.71 262.943 132.39 352.383 130.15 351.423L110.31 350.353C110.31 350.353 109.31 276.743 113.4 237.823C113.4 237.823 116.57 216.093 125.17 213.823C133.77 211.553 137.39 263.613 137.39 263.613Z" fill="#3F03BD"/>
<path d="M137.39 263.613C136.71 262.943 133.24 346.053 131.05 345.083L105.7 341.003C105.7 341.003 109.33 276.733 113.4 237.813C113.4 237.813 116.57 216.083 125.17 213.813C133.77 211.543 137.39 263.613 137.39 263.613Z" fill="#FCF4E3"/>
<path d="M175.67 178.943L180.16 203.873L165.9 210.663C165.9 210.663 156.79 209.313 152.55 204.323L154.96 179.713L175.67 178.943Z" fill="#FB7B5C"/>
<path d="M173.73 156.113L176.29 180.483C176.29 180.483 165.22 207.943 154.16 181.163L159.32 155.413L173.73 156.113Z" fill="#000128"/>
<path d="M148.4 166.733L152.61 165.543L153.61 170.543L149.4 171.733C149.092 171.816 148.77 171.832 148.455 171.782C148.14 171.731 147.839 171.615 147.572 171.44C147.305 171.266 147.078 171.037 146.905 170.769C146.732 170.5 146.618 170.199 146.57 169.883V169.883C146.441 169.226 146.555 168.543 146.892 167.963C147.228 167.384 147.765 166.947 148.4 166.733Z" fill="#FB7B5C" stroke="#FB7B5C" stroke-width="1.43" stroke-miterlimit="10"/>
<path d="M148.78 168.003L150.49 167.513L150.89 169.583L149.16 170.073C149.032 170.109 148.899 170.117 148.767 170.097C148.636 170.077 148.511 170.03 148.4 169.958C148.288 169.886 148.193 169.791 148.121 169.68C148.049 169.569 148.001 169.444 147.98 169.313V169.313C147.929 169.035 147.982 168.747 148.129 168.505C148.277 168.264 148.509 168.085 148.78 168.003V168.003Z" fill="#D34A28"/>
<path d="M181.65 165.393L177.36 166.003L177.01 160.853L181.3 160.273C181.618 160.235 181.941 160.265 182.248 160.36C182.554 160.455 182.837 160.613 183.078 160.824C183.32 161.035 183.514 161.295 183.649 161.586C183.783 161.877 183.855 162.193 183.86 162.513V162.513C183.913 163.182 183.717 163.846 183.309 164.378C182.9 164.91 182.309 165.272 181.65 165.393V165.393Z" fill="#FB7B5C" stroke="#FB7B5C" stroke-width="1.43" stroke-miterlimit="10"/>
<path d="M181.49 161.893L179.72 162.103L179.83 164.233L181.59 164.003C181.856 163.953 182.093 163.807 182.259 163.593C182.425 163.38 182.507 163.113 182.49 162.843C182.477 162.587 182.366 162.345 182.18 162.168C181.994 161.991 181.747 161.893 181.49 161.893Z" fill="#D34A28"/>
<path d="M165.37 184.413H165.28C155.17 184.843 150.87 178.033 150.7 169.413V168.753C150.53 160.133 155.21 146.353 163.19 145.753V145.663C171.14 145.003 179.49 157.883 179.6 166.503V167.163C179.78 175.773 176.73 183.683 165.37 184.413Z" fill="#FB7B5C" stroke="#FB7B5C" stroke-width="1.43" stroke-miterlimit="10"/>
<path d="M166.12 178.783C162.61 179.103 159.69 176.903 159.61 173.863V173.453L172.32 172.303V172.723C172.41 175.753 169.63 178.473 166.12 178.783Z" fill="white"/>
<path d="M162.29 166.003C162.29 166.633 161.92 167.143 161.46 167.143C161 167.143 160.62 166.633 160.62 166.003C160.62 165.373 160.99 164.863 161.45 164.863C161.91 164.863 162.29 165.333 162.29 166.003Z" fill="#000128"/>
<path d="M169.79 165.153C169.79 165.793 169.41 166.303 168.95 166.293C168.49 166.283 168.12 165.783 168.12 165.153C168.12 164.523 168.49 164.003 168.96 164.003C169.43 164.003 169.8 164.523 169.79 165.153Z" fill="#000128"/>
<path d="M167.07 170.613L164.07 170.763C163.71 170.763 163.44 170.333 163.57 169.923L164.73 166.223C164.745 166.121 164.795 166.028 164.87 165.957C164.945 165.887 165.041 165.843 165.144 165.834C165.246 165.825 165.349 165.85 165.435 165.906C165.522 165.962 165.587 166.046 165.62 166.143L167.49 169.673C167.67 170.073 167.49 170.593 167.07 170.613Z" fill="#D34A28"/>
<path d="M157.49 162.763C156.67 163.473 157.75 160.563 158.92 160.113C159.429 159.878 160.01 159.851 160.538 160.038C161.067 160.225 161.502 160.61 161.75 161.113C160.18 161.142 158.67 161.727 157.49 162.763V162.763Z" fill="#000128"/>
<path d="M171.26 160.513C172.26 161.023 170.51 158.433 169.26 158.273C168.71 158.161 168.138 158.27 167.668 158.577C167.198 158.884 166.868 159.364 166.75 159.913C168.277 159.58 169.873 159.793 171.26 160.513V160.513Z" fill="#000128"/>
<path d="M177.39 150.333C177.3 150.103 177.19 149.893 177.09 149.683C178.09 149.213 179.95 137.553 178.03 138.013C154.36 143.783 155.78 132.813 148.49 150.283C148.411 150.452 148.369 150.637 148.369 150.823C148.369 151.01 148.411 151.194 148.49 151.363C148.352 151.644 148.229 151.931 148.12 152.223C147.367 154.4 147.167 156.73 147.54 159.003C147.69 160.063 149.61 166.123 150.6 166.213C151.05 166.263 153.46 158.423 154.9 154.113C157.589 154.463 160.311 154.463 163 154.113C166.125 153.649 169.195 152.865 172.16 151.773C174.16 154.513 178.48 159.983 179.16 160.013C179.84 160.043 178.03 151.813 177.39 150.333Z" fill="#000128"/>
<path d="M148.59 202.853L153 195.043L166.24 210.323L160.02 223.333L148.59 202.853Z" fill="#7360E7"/>
<path d="M183.44 202.853L179.03 195.043L165.79 210.323L173.14 223.113L183.44 202.853Z" fill="#7360E7"/>
<path d="M150.6 166.163C150.6 166.163 158.53 170.963 161.6 170.253C164.67 169.543 164.71 167.503 168.78 169.413C172.85 171.323 179.16 159.913 179.16 159.913C179.16 159.913 177.03 166.303 180.5 166.183C180.5 166.183 178.94 184.003 167.5 185.183C155.87 186.413 150.28 172.523 150.28 172.523C150.785 172.298 151.225 171.949 151.559 171.509C151.893 171.068 152.11 170.55 152.19 170.003C152.51 168.073 150.6 166.173 150.6 166.173" fill="#FBFAF4"/>
<path d="M151.64 198.213C149.16 198.663 156.4 371.563 156.4 371.563L121.09 372.243L122.09 222.613C122.055 218.259 123.443 214.011 126.042 210.517C128.641 207.023 132.309 204.472 136.49 203.253L151.64 198.213Z" fill="#FCF4E3"/>
<path d="M179.93 195.723L175.41 368.173H213.43L209.8 207.943L179.93 195.723Z" fill="#FCF4E3"/>
<path d="M147.34 200.023L139.65 223.563L145.76 228.313L141.01 239.173L152.78 285.343" stroke="#002439" stroke-width="0.51" stroke-miterlimit="10"/>
<path d="M186.04 197.983L191.02 219.033L184.68 225.823L189.66 232.843L178.12 284.663" stroke="#002439" stroke-width="0.51" stroke-miterlimit="10"/>
<path d="M202.56 252.103H188.08V254.783H202.56V252.103Z" stroke="#002439" stroke-width="0.43" stroke-miterlimit="10"/>
<path d="M218.443 324.025L216.362 327.558L219.895 329.638L221.976 326.105L218.443 324.025Z" fill="#382266"/>
<path d="M181.865 319.168L174.077 332.395C173.645 333.128 173.89 334.072 174.623 334.504L176.001 335.315C176.734 335.747 177.678 335.503 178.11 334.77L185.898 321.542C186.33 320.809 186.086 319.865 185.353 319.434L183.974 318.622C183.241 318.191 182.297 318.435 181.865 319.168Z" fill="#983EC2"/>
<path d="M175.62 324.473L175.41 324.843C174.981 325.559 174.853 326.417 175.056 327.227C175.258 328.037 175.774 328.733 176.49 329.163H176.55L179.97 323.363H179.91C179.193 322.946 178.34 322.829 177.537 323.036C176.733 323.244 176.045 323.761 175.62 324.473V324.473ZM177.49 325.823C177.445 325.901 177.384 325.97 177.312 326.024C177.24 326.078 177.158 326.118 177.07 326.14C176.983 326.163 176.892 326.167 176.802 326.154C176.713 326.141 176.627 326.11 176.55 326.063C176.432 325.994 176.337 325.891 176.277 325.768C176.218 325.645 176.196 325.507 176.215 325.372C176.234 325.236 176.293 325.109 176.384 325.007C176.476 324.906 176.595 324.833 176.728 324.799C176.86 324.765 177 324.772 177.129 324.817C177.258 324.863 177.37 324.946 177.452 325.056C177.534 325.166 177.581 325.297 177.588 325.434C177.594 325.57 177.56 325.706 177.49 325.823Z" fill="#8550A6"/>
<path d="M188.799 309.593L169.062 343.113C168.527 344.022 168.83 345.193 169.739 345.728L217.168 373.655C218.077 374.19 219.247 373.887 219.783 372.978L239.52 339.457C240.055 338.548 239.752 337.378 238.843 336.842L191.414 308.916C190.505 308.381 189.335 308.684 188.799 309.593Z" fill="#B16DE7"/>
<path d="M183.475 322.284L177.585 332.289L180.782 334.171L186.672 324.167L183.475 322.284Z" fill="#8550A6"/>
<path d="M174.077 332.395L181.865 319.168C182.073 318.816 182.411 318.561 182.807 318.458C183.202 318.356 183.622 318.415 183.974 318.622L186.68 320.215L177.328 336.097L174.623 334.504C174.271 334.296 174.016 333.958 173.913 333.562C173.811 333.167 173.87 332.747 174.077 332.395V332.395Z" fill="#382266"/>
<path d="M223.2 343.413C222.79 346.263 222.5 347.973 222.5 347.973C222.5 347.973 219.3 364.213 209.23 372.263C207.76 373.443 212.39 369.793 212.39 369.793C212.39 369.793 205.83 374.933 204.58 375.123C203.33 375.313 209.71 369.283 209.71 369.283C209.71 369.283 202.71 375.663 201.45 375.153C200.19 374.643 206.58 366.733 206.58 366.733C206.58 366.733 200.66 374.063 199.34 373.653C198.02 373.243 207.61 352.273 204.19 354.233C203.04 354.883 197.31 360.103 195.54 359.123C193.77 358.143 205.01 345.533 205.01 345.533C205.01 345.533 205.66 339.933 205.62 339.423L223.2 343.413Z" fill="#FB7B5C"/>
<path d="M198.49 231.533C197.744 236.408 198.145 241.39 199.66 246.083C202.52 254.953 207.2 271.233 207.84 281.303C209.49 307.463 202.84 345.703 204.2 345.083L223.92 350.523C223.92 350.523 233.44 314.193 232.75 283.303C232.32 264.523 217.75 209.753 209.18 207.493C203.37 206.003 200.05 221.443 198.49 231.533Z" fill="#3F03BD"/>
<path d="M198.49 231.533C197.744 236.408 198.145 241.39 199.66 246.083C202.52 254.953 207.2 271.233 207.84 281.303C209.49 307.463 200.1 336.653 201.52 336.033L231.39 341.463C231.39 341.463 238.39 311.703 237.72 280.813C237.3 262.033 217.78 209.753 209.18 207.493C203.37 206.003 200.05 221.443 198.49 231.533Z" fill="#FCF4E3" stroke="#FCF4E3" stroke-width="1.02" stroke-miterlimit="10"/>
<path d="M156.49 243.933C156.492 242.813 156.162 241.718 155.541 240.786C154.92 239.854 154.037 239.127 153.003 238.697C151.969 238.267 150.83 238.154 149.732 238.371C148.633 238.588 147.624 239.126 146.831 239.917C146.039 240.709 145.499 241.717 145.279 242.815C145.06 243.914 145.172 245.052 145.6 246.087C146.028 247.122 146.753 248.006 147.684 248.629C148.615 249.251 149.71 249.583 150.83 249.583C151.573 249.585 152.309 249.439 152.995 249.156C153.682 248.873 154.306 248.457 154.832 247.932C155.357 247.407 155.774 246.784 156.059 246.098C156.343 245.412 156.49 244.676 156.49 243.933V243.933Z" fill="#081D06"/>
<path d="M150.85 246.983C152.535 246.983 153.9 245.618 153.9 243.933C153.9 242.249 152.535 240.883 150.85 240.883C149.166 240.883 147.8 242.249 147.8 243.933C147.8 245.618 149.166 246.983 150.85 246.983Z" fill="#7360E7"/>
<path d="M170.03 262.303L169.65 261.693C168.837 260.402 168.564 258.844 168.89 257.353L173.28 237.463C173.545 236.257 174.046 235.115 174.753 234.102C175.46 233.09 176.36 232.227 177.402 231.562C178.443 230.898 179.605 230.446 180.821 230.232C182.038 230.017 183.284 230.045 184.49 230.313C186.922 230.854 189.039 232.336 190.38 234.436C191.72 236.535 192.173 239.08 191.64 241.513L187.28 261.263C187.111 262.039 186.785 262.771 186.32 263.415C185.856 264.058 185.263 264.599 184.58 265.003L184.18 265.243" stroke="#081D06" stroke-width="1.02" stroke-miterlimit="10"/>
<path d="M171.64 262.223L169.36 263.683C169.192 263.415 169.136 263.091 169.205 262.782C169.274 262.473 169.463 262.204 169.73 262.033L169.99 261.863C170.257 261.694 170.58 261.636 170.889 261.704C171.198 261.771 171.468 261.958 171.64 262.223V262.223Z" fill="#081D06"/>
<path d="M184.05 266.913L182.6 264.643C182.866 264.474 183.187 264.417 183.494 264.485C183.802 264.552 184.07 264.739 184.24 265.003L184.41 265.273C184.496 265.404 184.556 265.55 184.584 265.704C184.613 265.858 184.61 266.016 184.577 266.169C184.543 266.322 184.479 266.467 184.389 266.595C184.298 266.723 184.183 266.831 184.05 266.913Z" fill="#081D06"/>
<path d="M153.34 194.593C153.34 194.593 144.49 196.173 146.21 211.793C147.93 227.413 149.95 239.003 149.95 239.003" stroke="#081D06" stroke-width="1.02" stroke-miterlimit="10"/>
<path d="M178.01 192.213C178.01 192.213 194.01 190.063 185.01 230.123" stroke="#081D06" stroke-width="1.02" stroke-miterlimit="10"/>
<g clip-path="url(#clip0)">
<g style="mix-blend-mode:multiply">
<path d="M331.47 549.4C345.111 549.4 356.17 547.614 356.17 545.41C356.17 543.206 345.111 541.42 331.47 541.42C317.829 541.42 306.77 543.206 306.77 545.41C306.77 547.614 317.829 549.4 331.47 549.4Z" fill="#4B5563"/>
</g>
<g style="mix-blend-mode:multiply">
<path d="M407.29 549.4C420.932 549.4 431.99 547.614 431.99 545.41C431.99 543.206 420.932 541.42 407.29 541.42C393.649 541.42 382.59 543.206 382.59 545.41C382.59 547.614 393.649 549.4 407.29 549.4Z" fill="#4B5563"/>
</g>
<path d="M306.22 259.15C307.99 261.02 297.35 346.05 297.35 346.05C297.35 346.05 293.14 359.9 307.66 374.43L319.52 260.55L306.22 259.15Z" fill="#FFA98E"/>
<path d="M321.3 221.9C321.3 221.9 308.44 222.79 305.78 241.9L303.12 260.96L316.42 262.29L321.3 221.9Z" fill="#6F6DE7"/>
<path d="M371.66 520.98L372.79 541.61L412.09 540.32L389.7 530.45L387.47 520.06L371.66 520.98Z" fill="#FFA98E"/>
<path d="M387.47 520.06L372.79 541.61L371.66 520.98L387.47 520.06Z" fill="#FF9C81"/>
<path d="M391.91 529.77L412.09 540.32L372.79 541.61L372.06 530.85L391.91 529.77Z" fill="#4A03BD"/>
<path d="M412.73 547.04L372.75 548.03L372.61 541.31L412.58 540.32L412.73 547.04Z" fill="#FCF4E3"/>
<path d="M394.34 531.13L390.03 534.07" stroke="white" stroke-width="0.68" stroke-miterlimit="10"/>
<path d="M398.18 533.06L393.87 535.99" stroke="white" stroke-width="0.68" stroke-miterlimit="10"/>
<path d="M327.36 520.79L330.59 542.66L291.27 543.33L313.74 531.8L312.51 519.92L327.36 520.79Z" fill="#FFA98E"/>
<path d="M312.51 519.92L327.36 520.79L330.59 542.66L312.51 519.92Z" fill="#FF9C81"/>
<path d="M310.97 531.78L291.27 543.33L330.59 542.66L329.19 531.44L310.97 531.78Z" fill="#4A03BD"/>
<path d="M307.91 533.28L312.34 536" stroke="white" stroke-width="0.68" stroke-miterlimit="10"/>
<path d="M304.15 535.39L308.58 538.11" stroke="white" stroke-width="0.68" stroke-miterlimit="10"/>
<path d="M331.12 549.07L291.15 550.06L291 543.34L330.97 542.35L331.12 549.07Z" fill="#FCF4E3"/>
<path d="M329.49 291L363.87 294.46C363.87 294.46 377 281.39 392.79 519.61L370.79 521.18L344.18 354C344.046 353.524 343.739 353.115 343.321 352.851C342.902 352.588 342.401 352.489 341.914 352.573C341.426 352.658 340.988 352.92 340.682 353.309C340.377 353.698 340.226 354.187 340.26 354.68L332.81 522.38L309.75 521.11C309.75 521.11 297.92 352.3 308.12 325C318.32 297.7 329.49 291 329.49 291Z" fill="#6F6DE7"/>
<path d="M309.43 321.66C309.43 321.66 323.43 327.55 330.66 314.45C337.89 301.35 339.87 294.17 339.87 294.17" stroke="black" stroke-width="0.68" stroke-miterlimit="10"/>
<path d="M354.85 294.71C354.85 294.71 354.16 324.12 362.4 326.81C370.64 329.5 374.62 329 374.62 329" stroke="black" stroke-width="0.68" stroke-miterlimit="10"/>
<path d="M362.4 326.81L385.57 519.75" stroke="#FBFAF4" stroke-width="0.68" stroke-miterlimit="10"/>
<path d="M317.84 322.79L318.99 521.44" stroke="#FBFAF4" stroke-width="0.68" stroke-miterlimit="10"/>
<g style="mix-blend-mode:soft-light" opacity="0.82">
<path d="M377.05 343.72L328.64 292C328.64 292 301.56 309.78 304.56 370L377.05 343.72Z" fill="#002439"/>
</g>
<path d="M335.49 188.4C335.49 188.4 323.59 186.65 324.17 195.4C324.75 204.15 329.98 202.4 329.98 202.4C329.98 202.4 327.65 210.53 334.91 208.5C342.17 206.47 342.75 199.5 342.46 196.59C342.17 193.68 335.49 188.4 335.49 188.4Z" fill="#FC461E"/>
<path d="M328.68 190.67C328.68 190.67 312.77 169.07 334.19 158C355.61 146.93 361.66 170.08 361.66 173.1C361.66 176.12 360.66 214.69 337.21 200.57L328.68 190.67Z" fill="#FC461E"/>
<path d="M352.55 190.26C352.55 190.26 359.05 221.26 359.55 223.42C359.55 223.42 341.21 265.58 335.38 223.13C335.38 223.13 337.38 215.19 339.54 198.02L352.55 190.26Z" fill="#FFA98E"/>
<path d="M351.59 170.17C345.89 169.02 340.59 175.77 338.79 184.78L338.65 185.47C336.82 194.47 340.65 205.76 348.13 204.05C352.67 203.05 353.9 196.39 354.27 191.1L358.5 188.51C360.32 179.5 357.29 171.32 351.59 170.17Z" fill="#000328"/>
<path d="M329.7 188L334.24 186.47L332.52 181.47L328 182.92C327.668 183.032 327.361 183.208 327.097 183.438C326.834 183.669 326.618 183.949 326.463 184.263C326.308 184.577 326.216 184.919 326.193 185.268C326.17 185.618 326.217 185.968 326.33 186.3C326.439 186.634 326.612 186.942 326.841 187.209C327.069 187.475 327.348 187.693 327.661 187.851C327.974 188.009 328.316 188.104 328.666 188.129C329.016 188.155 329.367 188.111 329.7 188Z" fill="#FFA98E"/>
<path d="M360.48 178.87L355.88 180.18L357.34 185.3L362 184C362.336 183.905 362.65 183.746 362.924 183.529C363.198 183.313 363.426 183.045 363.596 182.74C363.766 182.435 363.875 182.1 363.915 181.753C363.955 181.407 363.926 181.056 363.83 180.72V180.72C363.736 180.376 363.573 180.054 363.353 179.774C363.132 179.494 362.858 179.26 362.545 179.088C362.233 178.915 361.889 178.807 361.535 178.77C361.18 178.732 360.821 178.766 360.48 178.87V178.87Z" fill="#FFA98E"/>
<path d="M361.06 180.18L359.16 180.72L359.92 183.39L361.82 182.85C362.123 182.72 362.363 182.477 362.49 182.173C362.617 181.868 362.62 181.527 362.5 181.22V181.22C362.441 180.894 362.258 180.604 361.99 180.41C361.721 180.216 361.388 180.133 361.06 180.18V180.18Z" fill="#F75A4C"/>
<path d="M328.44 184.11L330.5 183.38L331.5 186.06L329.44 186.8C329.1 186.892 328.738 186.846 328.433 186.672C328.127 186.497 327.903 186.209 327.81 185.87V185.87C327.665 185.552 327.65 185.191 327.767 184.862C327.885 184.533 328.126 184.263 328.44 184.11V184.11Z" fill="#F75A4C"/>
<path d="M340.78 166.84C332.12 168.84 328.09 177.2 330.07 185.58L330.23 186.23C332.23 194.61 342.6 201.99 347.89 199.91L348.08 199.82C353.75 198.11 362 187.37 360 179L359.85 178.36C359.362 176.347 358.48 174.451 357.255 172.78C356.031 171.11 354.488 169.699 352.715 168.628C350.942 167.557 348.975 166.847 346.926 166.541C344.878 166.234 342.789 166.335 340.78 166.84V166.84Z" fill="#FFA98E"/>
<path d="M353.47 191.03C355.558 191.03 357.25 189.338 357.25 187.25C357.25 185.162 355.558 183.47 353.47 183.47C351.382 183.47 349.69 185.162 349.69 187.25C349.69 189.338 351.382 191.03 353.47 191.03Z" fill="#FF9C81"/>
<path d="M334.35 186.56C333.822 187.089 333.463 187.762 333.317 188.496C333.172 189.229 333.247 189.988 333.533 190.679C333.82 191.369 334.304 191.959 334.926 192.374C335.547 192.789 336.278 193.011 337.025 193.011C337.772 193.011 338.503 192.789 339.125 192.374C339.746 191.959 340.231 191.369 340.517 190.679C340.803 189.988 340.878 189.229 340.733 188.496C340.588 187.762 340.228 187.089 339.7 186.56C338.988 185.855 338.027 185.459 337.025 185.459C336.023 185.459 335.062 185.855 334.35 186.56Z" fill="#FF9C81"/>
<path d="M341.85 178.08C342.42 178.08 341.27 176.77 339.85 176.96C338.43 177.15 335.85 180.02 335.85 180.02C335.85 180.02 339.86 178.08 341.85 178.08Z" fill="#001119"/>
<path d="M347.42 177.23C347.05 177.3 347.42 175.93 348.06 175.86C348.7 175.79 351.58 175.59 353.23 177.55C351.328 177.098 349.36 176.989 347.42 177.23V177.23Z" fill="#001119"/>
<path d="M349.64 188.33C349.42 188.33 341.51 189.43 341.37 189.39C341.23 189.35 344.06 193.1 346.19 193C348.32 192.9 349.64 188.33 349.64 188.33Z" fill="white"/>
<path d="M346.68 188.4L344.68 188.62C344.592 188.629 344.503 188.616 344.422 188.583C344.34 188.549 344.268 188.495 344.213 188.427C344.157 188.358 344.119 188.277 344.103 188.19C344.087 188.103 344.093 188.014 344.12 187.93L344.3 182.56C344.331 182.465 344.389 182.38 344.466 182.317C344.544 182.253 344.638 182.212 344.737 182.2C344.836 182.187 344.937 182.203 345.028 182.246C345.119 182.288 345.196 182.356 345.25 182.44L347.03 187.59C347.075 187.664 347.102 187.747 347.108 187.834C347.114 187.92 347.099 188.006 347.065 188.086C347.03 188.165 346.978 188.235 346.911 188.29C346.844 188.344 346.765 188.382 346.68 188.4V188.4Z" fill="#FF7A61"/>
<path d="M340.61 184C340.78 184.66 341.22 185.12 341.61 185C342 184.88 342.15 184.29 341.98 183.64C341.81 182.99 341.38 182.52 340.98 182.64C340.58 182.76 340.45 183.31 340.61 184Z" fill="#001119"/>
<path d="M348 182.84C348 183.52 348.37 184.05 348.76 184.03C349.15 184.01 349.43 183.45 349.4 182.77C349.37 182.09 349.03 181.56 348.64 181.58C348.25 181.6 347.92 182.16 348 182.84Z" fill="#001119"/>
<path d="M329 181.69C329.25 181.69 334.9 181.44 338.14 167.81C345.068 171.927 352.33 175.453 359.85 178.35C359.85 178.35 359.54 159.35 344.85 160.16C324.93 161.24 329 181.69 329 181.69Z" fill="#FC461E"/>
<path d="M329.17 182.11C329.17 182.11 338.09 190.4 341.3 188.51C344.51 186.62 343.51 183.86 349.37 186.6C355.23 189.34 360.48 178.87 360.48 178.87C360.48 178.87 358.29 183.94 360.09 184.41C360.09 184.41 354.7 201.14 346.76 200.29C338.82 199.44 334.66 195.19 330.41 187.72C330.41 187.72 335 190.14 329.17 182.11Z" fill="#FBFBFB" stroke="#FBFBFB" stroke-width="0.28" stroke-miterlimit="10"/>
<path d="M336.37 217.25L344.37 232.77L358.54 216.58L368.74 221.68C378.42 223.45 379.21 234 377.38 243.63L376.72 293.07C376.72 293.07 380.83 334.07 381.04 343.07L300.9 342.73L311.9 242.48C315.11 229.48 318.23 221.09 329.35 219.42L336.37 217.25Z" fill="#6F6DE7"/>
<g style="mix-blend-mode:soft-light" opacity="0.3">
<path d="M377.38 243.63C378.305 239.412 378.394 235.052 377.64 230.8C352.024 266.621 328.703 304.029 307.82 342.8L381.04 343.1C380.83 334.1 376.72 293.1 376.72 293.1L377.38 243.63Z" fill="#002439"/>
</g>
<path d="M330.38 250.95H315.53V255.38H330.38V250.95Z" stroke="#FBFAF4" stroke-width="0.5" stroke-miterlimit="10"/>
<path d="M334.38 217.25L343.69 236.98L361.2 218.13" stroke="#FBFAF4" stroke-width="0.5" stroke-miterlimit="10"/>
<path d="M381.458 279.795L377.569 280.838L378.611 284.727L382.501 283.685L381.458 279.795Z" fill="#223666"/>
<path d="M373.78 258.59L370.45 259.04C370.313 259.066 370.173 259.062 370.037 259.031C369.902 258.999 369.775 258.939 369.664 258.856C369.553 258.772 369.46 258.666 369.392 258.544C369.325 258.423 369.283 258.289 369.27 258.15V258.15C369.236 257.875 369.311 257.597 369.479 257.376C369.647 257.156 369.895 257.01 370.17 256.97L374.3 256.41C374.576 256.373 374.855 256.447 375.076 256.616C375.298 256.785 375.443 257.034 375.48 257.31V257.6C375.518 257.881 375.448 258.167 375.282 258.397C375.116 258.628 374.869 258.786 374.59 258.84L373.82 258.95" stroke="#58BED0" stroke-width="0.15" stroke-miterlimit="10"/>
<path d="M358.677 250.937L344.147 254.819C343.341 255.035 342.862 255.862 343.078 256.668L343.483 258.185C343.698 258.99 344.526 259.469 345.331 259.254L359.862 255.371C360.667 255.156 361.146 254.328 360.931 253.523L360.525 252.006C360.31 251.2 359.482 250.722 358.677 250.937Z" fill="#3E84C2"/>
<path d="M350.66 250.37L350.26 250.47C349.468 250.681 348.793 251.198 348.382 251.907C347.972 252.615 347.859 253.458 348.07 254.25V254.32L354.44 252.61V252.55C354.336 252.158 354.155 251.791 353.908 251.469C353.661 251.148 353.354 250.878 353.003 250.675C352.651 250.473 352.264 250.341 351.862 250.289C351.46 250.237 351.051 250.264 350.66 250.37V250.37ZM351 252.59C350.828 252.636 350.644 252.612 350.489 252.523C350.334 252.434 350.221 252.287 350.175 252.115C350.129 251.943 350.152 251.759 350.242 251.604C350.331 251.449 350.478 251.336 350.65 251.29C350.735 251.267 350.824 251.262 350.912 251.274C350.999 251.286 351.084 251.315 351.16 251.36C351.236 251.404 351.303 251.463 351.356 251.534C351.409 251.604 351.448 251.685 351.47 251.77C351.494 251.855 351.501 251.943 351.49 252.031C351.48 252.118 351.452 252.203 351.408 252.279C351.364 252.356 351.305 252.422 351.235 252.476C351.165 252.529 351.085 252.568 351 252.59V252.59Z" fill="#9050A6"/>
<path d="M370.096 249.024L333.277 258.862C332.28 259.129 331.687 260.154 331.953 261.152L345.873 313.244C346.139 314.242 347.164 314.835 348.162 314.568L384.98 304.73C385.978 304.463 386.571 303.438 386.304 302.441L372.385 250.348C372.118 249.35 371.093 248.758 370.096 249.024Z" fill="#081D06"/>
<path d="M357.648 254.233L346.664 257.168L347.601 260.675L358.585 257.74L357.648 254.233Z" fill="#9050A6"/>
<path d="M344.137 254.822L358.628 250.95C358.821 250.896 359.022 250.88 359.221 250.904C359.419 250.929 359.611 250.992 359.785 251.091C359.959 251.19 360.111 251.323 360.233 251.481C360.355 251.639 360.445 251.82 360.496 252.014L361.291 254.989L343.901 259.636L343.106 256.66C343.003 256.273 343.058 255.861 343.258 255.514C343.459 255.168 343.789 254.915 344.175 254.812L344.137 254.822Z" fill="#223666"/>
<path d="M413.55 272.1L412.82 270.95L413.19 270.71C405.674 257.542 397.496 244.763 388.69 232.42C373.1 214.32 365.86 222.42 364.15 225.42C360.79 234.42 374.48 247.21 379.47 254.97C382.09 259.05 384.85 263.07 388.47 268.23C379.746 271.208 370.866 273.709 361.87 275.72C346.74 274.63 345.23 273.42 342.8 274.27C342.8 274.27 339.26 273.73 340.8 275.09C341.21 275.44 349.36 277.71 348.8 277.96C348.24 278.21 333.5 281.34 334.09 282.7C334.68 284.06 343.69 282.4 343.99 283.08C344.29 283.76 334.61 284.38 334.77 285.68C334.93 286.98 344.66 286.05 344.52 286.68C344.38 287.31 335.29 287.36 335.52 288.35C335.75 289.34 345.41 288.72 345.78 289.09C346.15 289.46 337.07 289.52 336.78 290.76C336.56 291.69 345.23 291.67 347.97 291.32C353.685 290.58 359.33 289.376 364.85 287.72C367.28 287.79 386.41 286.51 407.97 283.83C409.26 283.681 410.492 283.207 411.548 282.451C412.605 281.696 413.452 280.684 414.01 279.511C414.568 278.338 414.818 277.042 414.738 275.746C414.657 274.45 414.249 273.195 413.55 272.1V272.1Z" fill="#FFA98E"/>
<path d="M400.59 250C396.75 244 394.76 238.66 390.69 233C375.1 214.89 362.46 219.67 360.76 222.68C357.64 231 378.05 259.59 377.38 258.59C384.88 257.86 393.16 251.25 400.59 250Z" fill="#6F6DE7"/>
</g>
<defs>
<clipPath id="clip0">
<rect width="140.99" height="395.06" fill="white" transform="translate(291 155)"/>
</clipPath>
</defs>
</svg>
