<svg width="664" height="523" viewBox="0 0 664 523" fill="none" xmlns="http://www.w3.org/2000/svg">
<path fill-rule="evenodd" clip-rule="evenodd" d="M335.717 520.507C459.342 520.265 602.163 509.047 646.221 393.539C694.81 266.152 628.216 124.972 516.267 47.1531C412.919 -24.6873 278.866 -5.30738 175.26 66.1601C63.9897 142.914 -32.7012 267.32 12.3124 394.78C54.894 515.354 207.845 520.758 335.717 520.507Z" fill="#CFD0FF"/>
<g style="mix-blend-mode:multiply">
<path d="M307.03 485.48C320.672 485.48 331.73 483.694 331.73 481.49C331.73 479.286 320.672 477.5 307.03 477.5C293.389 477.5 282.33 479.286 282.33 481.49C282.33 483.694 293.389 485.48 307.03 485.48Z" fill="#4B5563"/>
</g>
<g style="mix-blend-mode:multiply">
<path d="M362.9 485.48C376.542 485.48 387.6 483.694 387.6 481.49C387.6 479.286 376.542 477.5 362.9 477.5C349.259 477.5 338.2 479.286 338.2 481.49C338.2 483.694 349.259 485.48 362.9 485.48Z" fill="#4B5563"/>
</g>
<path d="M360.35 458.73L364.73 483.13H402.06V480.18L380.83 467.85L380.43 459.18L360.35 458.73Z" fill="#F78C68"/>
<path d="M380.83 467.85L377.07 453.8L357.55 458.9L380.83 467.85Z" fill="#D17645"/>
<path d="M384.3 468.54C384.3 468.54 381.12 468.54 366.95 471.08L361.95 468.75V485.35L408.39 485.18C408.443 483.998 408.156 482.826 407.565 481.802C406.973 480.778 406.1 479.944 405.05 479.4L384.3 468.54Z" fill="#FCF4E3"/>
<path d="M303.22 458.73L298.84 483.13H261.51V480.18L282.74 467.85L283.13 459.18L303.22 458.73Z" fill="#F78C68"/>
<path d="M282.74 467.85L283.13 459.18L302.21 458.34L282.74 467.85Z" fill="#D17645"/>
<path d="M279.27 468.54C279.27 468.54 282.44 468.54 296.62 471.08L301.62 468.75V485.35L255.14 485.18C255.09 483.999 255.377 482.828 255.969 481.804C256.561 480.78 257.432 479.946 258.48 479.4L279.27 468.54Z" fill="#FCF4E3"/>
<path d="M360.66 242.07L381.52 459.69L352 460.36L329.81 322.11C327.97 316.52 321.81 316.58 319.81 322.11L306.91 459.69L280 459C280 459 274.73 335.3 290.83 235.21L360.66 242.07Z" fill="#0377BD"/>
<path d="M300.95 267.1L290.11 456.33" stroke="#FBFAF4" stroke-width="0.68" stroke-miterlimit="10"/>
<path d="M366.73 457.67L344.43 268.77" stroke="#FBFAF4" stroke-width="0.68" stroke-miterlimit="10"/>
<g style="mix-blend-mode:soft-light" opacity="0.82">
<path d="M284.33 290.6L369.46 334.94L365.69 292.82L284.33 290.6Z" fill="#002439"/>
</g>
<path d="M310.94 141.76L298.62 204.38L263.22 188.81C264.4 188.61 281.71 156.21 281.71 156.21C281.71 156.21 301 131 310.94 141.76Z" fill="#002E55"/>
<path d="M297.39 142.76C320.52 130.44 317.28 133.46 337.25 133.48C348.11 133.48 377.05 145.69 380.85 155.87C384.42 165.44 381.7 181.87 382.19 183.43L370.66 180L368.79 294L277.68 290.6C277.68 290.6 289.09 199.27 289.43 184.44C289.46 183.56 295.91 143.55 297.39 142.76Z" fill="#002E55"/>
<g style="mix-blend-mode:multiply" opacity="0.43">
<path d="M366.8 164.24L324.23 291.93L368.13 293.26L366.8 164.24Z" fill="#5200A3"/>
</g>
<path d="M315 117.42L314.03 134.98L319.91 152.27L338.42 132.76L335.2 117.12L315 117.42Z" fill="#F78C68"/>
<path d="M333.75 117.52C333.75 117.52 320.22 139 314.64 128.76C313.04 125.83 310.27 115.88 310.27 115.88C310.27 115.88 333.86 116.49 334 116.62" fill="#10192E"/>
<path d="M332.278 200.423L328.32 201.494L329.39 205.451L333.348 204.381L332.278 200.423Z" fill="#223666"/>
<path d="M309.523 171.368L294.705 175.374C293.884 175.596 293.399 176.442 293.621 177.263L294.038 178.807C294.26 179.628 295.106 180.114 295.927 179.892L310.745 175.885C311.566 175.663 312.051 174.818 311.829 173.997L311.412 172.452C311.19 171.631 310.344 171.146 309.523 171.368Z" fill="#3E84C2"/>
<path d="M301.34 170.8L300.93 170.91C300.124 171.128 299.437 171.657 299.021 172.381C298.605 173.104 298.493 173.964 298.71 174.77V174.84L305.21 173.08V173.02C305.102 172.62 304.917 172.245 304.664 171.916C304.411 171.588 304.095 171.313 303.736 171.107C303.376 170.901 302.98 170.767 302.569 170.715C302.158 170.662 301.74 170.691 301.34 170.8V170.8ZM301.74 173.07C301.608 173.107 301.468 173.104 301.338 173.062C301.208 173.019 301.094 172.939 301.009 172.831C300.925 172.723 300.875 172.592 300.865 172.456C300.855 172.319 300.886 172.182 300.954 172.064C301.022 171.945 301.124 171.849 301.246 171.788C301.369 171.727 301.507 171.704 301.643 171.722C301.779 171.74 301.906 171.798 302.009 171.888C302.112 171.979 302.185 172.098 302.22 172.23C302.244 172.317 302.251 172.407 302.24 172.497C302.229 172.586 302.2 172.672 302.156 172.75C302.111 172.828 302.051 172.897 301.98 172.952C301.909 173.007 301.827 173.047 301.74 173.07V173.07Z" fill="#506CA6"/>
<path d="M321.174 169.36L283.623 179.513C282.604 179.789 282.002 180.837 282.277 181.856L296.643 234.988C296.919 236.006 297.967 236.608 298.986 236.333L336.537 226.18C337.556 225.904 338.158 224.856 337.882 223.837L323.516 170.705C323.241 169.687 322.192 169.085 321.174 169.36Z" fill="#FCF4E3"/>
<path d="M308.497 174.716L297.29 177.747L298.258 181.328L309.466 178.298L308.497 174.716Z" fill="#506CA6"/>
<path d="M294.657 175.387L309.523 171.368C309.918 171.261 310.338 171.315 310.692 171.519C311.046 171.722 311.305 172.058 311.412 172.452L312.239 175.512L294.448 180.323L293.621 177.263C293.516 176.877 293.566 176.465 293.759 176.115C293.953 175.765 294.275 175.504 294.657 175.387V175.387Z" fill="#223666"/>
<path d="M266.7 189.51C266.7 189.51 250.62 211.32 256.16 227C261.7 242.68 339.16 223.14 339.16 223.14L300 199.73L287.9 199.22L278 195.53L266.7 189.51Z" fill="#F78C68"/>
<path d="M328.42 225.78L324.03 224.34L298.62 204.38L286.91 200.23L317.67 227.12L328.42 225.78Z" fill="#ED864E"/>
<path d="M308 212C308 212 366 255.17 382.2 240.52C396.32 218.34 380.44 163.87 380.44 163.87L355.44 174.19C355.44 174.19 355.87 200.37 354.01 199.69C352.15 199.01 307.63 198.18 307.63 198.18C307.63 198.18 300.07 189.1 286.96 200.18L308 212Z" fill="#F78C68"/>
<path d="M341.16 232.29C352.86 233.75 367.16 230.87 373.35 219.74C377.25 212.74 377.35 203.89 376.83 196.12C376.26 187.12 374.51 178.27 373.63 169.31C373.576 168.833 373.393 168.38 373.1 168L381.76 163.29C381.76 163.29 396.31 218.43 382.19 240.61C374.19 247.87 355.88 240.94 339.48 232.1L341.16 232.29Z" fill="#ED864E"/>
<path d="M393 219.73C388.34 197.37 386.62 156.06 372.17 142.96C365.55 136.96 349.55 136.89 344.26 137.63C341.4 138.03 346.96 137.63 347.57 140.48L353.34 199.56L393 219.73Z" fill="#002E55"/>
<path d="M311.11 94.74C311.729 95.7081 312.6 96.4894 313.63 97C315.72 97.81 320.68 98.92 323.02 97.15C325.36 95.38 327.41 95.43 328.1 95.9L333.38 112.59L332.97 112.8L333.28 113.39L338.58 110.6L335.37 111.67C339.27 99.11 341.73 92.9 338.97 89.31C342 82.6 331.88 75 326.56 78.78C323.4 73.45 318.74 77 314.92 79.61C300.92 74.79 303.45 93.07 309.82 96.06C310.38 97.16 310.2 94.07 311.11 94.74ZM335.68 111.41L334.53 112C335.176 111.357 335.969 110.88 336.84 110.61L335.68 111.41Z" fill="#10192E"/>
<path d="M333.81 110.8C333.848 110.901 333.91 110.991 333.991 111.062C334.073 111.133 334.17 111.182 334.275 111.206C334.38 111.23 334.49 111.227 334.594 111.198C334.697 111.169 334.792 111.115 334.87 111.04C336.02 109.94 338.3 108.43 339.12 112.81C340.24 118.76 333.88 117.74 333.38 118.54C331.799 121.524 329.521 124.083 326.74 126C324.48 127.6 319.25 129.23 313.41 127.34C309.15 125.93 307 111.06 310.1 92.43C310.1 92.43 311.6 95.26 313.75 95.98C315.9 96.7 319.75 95.41 322.17 94.74C324.17 94.2 327.89 92.41 330.38 94.24C331.88 94.9 332.82 108.22 333.81 110.8Z" fill="#F78C68"/>
<path d="M338.17 112.37L334.82 114.84C334.82 114.84 336.07 108.87 338.17 112.37Z" fill="#D34A28"/>
<path d="M325.68 105.33C326.77 106.1 325.11 102.65 323.62 102.24C322.965 102.012 322.246 102.05 321.619 102.348C320.992 102.645 320.507 103.178 320.27 103.83C322.193 103.683 324.107 104.214 325.68 105.33V105.33Z" fill="#10192E"/>
<path d="M311.68 105.37C310.28 105.89 310.91 104.08 312.04 103.27C313.64 102.59 315.35 102.95 315.94 104.33C315.94 104.33 312.61 105 311.68 105.37Z" fill="#10192E"/>
<path d="M317.75 108.77L316 113.55C315.99 113.57 315.986 113.592 315.986 113.615C315.987 113.637 315.993 113.659 316.003 113.678C316.014 113.698 316.029 113.715 316.048 113.727C316.067 113.74 316.088 113.747 316.11 113.75L318.16 113.87C318.18 113.871 318.2 113.869 318.219 113.862C318.238 113.855 318.255 113.844 318.269 113.829C318.284 113.815 318.295 113.798 318.302 113.779C318.309 113.76 318.312 113.74 318.31 113.72L318 108.81C317.998 108.781 317.986 108.753 317.966 108.731C317.946 108.71 317.92 108.695 317.891 108.691C317.862 108.686 317.832 108.692 317.807 108.706C317.781 108.72 317.761 108.743 317.75 108.77V108.77Z" fill="#D34A28"/>
<path d="M321.32 111.33C321.646 111.33 321.91 110.739 321.91 110.01C321.91 109.281 321.646 108.69 321.32 108.69C320.994 108.69 320.73 109.281 320.73 110.01C320.73 110.739 320.994 111.33 321.32 111.33Z" fill="#10192E"/>
<path d="M315.17 110.1C315.17 110.84 315.43 111.43 315.76 111.43C316.09 111.43 316.35 110.84 316.35 110.1C316.35 109.36 316.08 108.78 315.76 108.78C315.44 108.78 315.17 109.37 315.17 110.1Z" fill="#10192E"/>
<path d="M314.05 115.62C314.05 115.62 321.05 115.8 321.98 115.71C321.98 115.71 319.25 119.78 316.92 119.61C314.59 119.44 314.05 115.62 314.05 115.62Z" fill="white"/>
<path d="M308.65 113.56C308.65 113.56 309.09 123.21 311.97 126.09C314.85 128.97 325.39 129 329.93 123C334.47 117 336.47 117.79 336.47 117.79C336.47 117.79 330.93 119.79 329.82 120.01C328.71 120.23 326.38 116.01 327.6 114.8C328.82 113.59 336 110.13 336 110.13C336 110.13 326.91 113.78 323.69 113.78C322.69 113.78 318.97 109.46 314.05 112.78C310 115.56 308.65 113.56 308.65 113.56Z" fill="#FBFBFB" stroke="#FBFBFB" stroke-width="0.28" stroke-miterlimit="10"/>
<path d="M311.59 135.31C311.59 136.31 318.59 157.92 318.59 157.92L342.19 134.31" stroke="#FBFAF4" stroke-width="0.5" stroke-miterlimit="10"/>
<path d="M346.84 180.2H330.55V183.86H346.84V180.2Z" stroke="#FBFAF4" stroke-width="0.5" stroke-miterlimit="10"/>
</svg>
