<svg width="512" height="512" viewBox="0 0 512 512" fill="none" xmlns="http://www.w3.org/2000/svg">
<path d="M331.208 60.231L304.569 30.117H286.118V0H225.883V30.117H207.332L181.853 60.231H82.824V512H338.824V496.941H97.883V75.29H181.209V90.354H112.941V180.909H128V105.413H181.209V120.472H210.815V105.413H196.268V66.507L214.316 45.176H297.784L316.737 66.601V105.412H225.881V120.471H331.796V105.412H384V466.824H128V195.262H112.941V481.882H399.058V90.353H331.796V75.29H414.117V496.942H384V512H429.176V60.231H331.208ZM240.941 30.117V15.059H271.059V30.117H240.941Z" fill="#4B5563"/>
<path d="M353.88 496.941H368.935V512H353.88V496.941Z" fill="#4B5563"/>
<path d="M217.516 60.231H232.575V75.29H217.516V60.231Z" fill="#4B5563"/>
<path d="M233.38 157.562V187.733H203.209V232.973H233.38V263.144H278.62V232.973H308.791V187.733H278.62V157.562H233.38ZM293.732 202.792V217.915H263.561V248.086H248.438V217.915H218.267V202.792H248.438V172.621H263.561V202.792H293.732Z" fill="#4B5563"/>
<path d="M158.118 338.364H203.402V293.08H158.118V338.364ZM173.177 308.139H188.343V323.305H173.177V308.139Z" fill="#4B5563"/>
<path d="M158.118 413.916H203.402V368.632H158.118V413.916ZM173.177 383.691H188.343V398.857H173.177V383.691Z" fill="#4B5563"/>
<path d="M225.882 308.193H353.88V323.252H225.882V308.193Z" fill="#4B5563"/>
<path d="M225.882 383.744H353.88V398.803H225.882V383.744Z" fill="#4B5563"/>
<path d="M225.882 338.384H263.527V353.443H225.882V338.384Z" fill="#4B5563"/>
<path d="M225.882 413.742H263.527V428.801H225.882V413.742Z" fill="#4B5563"/>
<path d="M143.059 135.027H158.118V150.086H143.059V135.027Z" fill="#4B5563"/>
<path d="M173.231 135.027H188.29V150.086H173.231V135.027Z" fill="#4B5563"/>
</svg>
